<?xml version="1.0" encoding="UTF-8"?>
<!DOCTYPE svg PUBLIC "-//W3C//DTD SVG 1.1//EN" "http://www.w3.org/Graphics/SVG/1.1/DTD/svg11.dtd">
<!-- Creator: CorelDRAW 2020 (64-Bit) -->
<svg xmlns="http://www.w3.org/2000/svg" xml:space="preserve" width="210mm" height="297mm" version="1.1" style="shape-rendering:geometricPrecision; text-rendering:geometricPrecision; image-rendering:optimizeQuality; fill-rule:evenodd; clip-rule:evenodd"
viewBox="0 0 21000 29700"
 xmlns:xlink="http://www.w3.org/1999/xlink"
 xmlns:xodm="http://www.corel.com/coreldraw/odm/2003">
 <defs>
  <style type="text/css">
   <![CDATA[
    .fil1 {fill:#00AFEF}
    .fil0 {fill:#273B91}
    .fil3 {fill:#3A9BD6}
    .fil4 {fill:#F5B248}
    .fil2 {fill:#F8B044}
   ]]>
  </style>
 </defs>
 <g id="Layer_x0020_1">
  <metadata id="CorelCorpID_0Corel-Layer"/>
  <g id="_2155617365520">
   <path class="fil0" d="M16223.33 21452.31l-1436.84 9.11c-216.24,15.9 -209.47,345.78 -0.94,342.63l1447.5 -15.72c197.51,-11.05 233.11,-333.94 -9.72,-336.02z"/>
   <path class="fil0" d="M16080.47 22498.6l-1298.99 9.26c-195.49,16.17 -189.37,351.48 -0.85,348.28l1308.62 -15.98c178.57,-11.23 210.75,-339.44 -8.78,-341.56z"/>
   <path class="fil0" d="M16204.49 23629.69l-1417.25 10.11c-213.29,17.63 -206.62,383.48 -0.93,379.98l1427.76 -17.43c194.82,-12.25 229.93,-370.34 -9.58,-372.66z"/>
   <g>
    <polygon class="fil1" points="8274.91,24150.04 7960.37,24144.44 7951.76,24446.6 8280.78,24451.65 "/>
    <path class="fil0" d="M8211.91 24451.1c84.35,-97.72 77.86,-210.09 -0.06,-301.88 280.27,-46.74 243.56,351.15 0.06,301.88z"/>
    <path class="fil0" d="M8026.99 24145.21c-84.36,97.71 -78.51,210.39 -0.59,302.18 -280.27,46.74 -242.92,-351.45 0.59,-302.18z"/>
   </g>
   <polygon class="fil2" points="8861.5,9368.51 7137.78,9937.92 7169.47,10060.72 8917.42,9488.78 11512.67,8836.09 12793.61,8647.69 12780.27,8513.11 11412.59,8735.16 11419.27,8627.5 13150,8092.47 13113.85,7968.09 11385.91,8540.03 11365.89,8412.18 12529.52,7864.5 12446.69,7712.39 11292.51,8338.17 11245.81,8250.69 11978.45,7766.8 11899.62,7645.11 11185.76,8169.95 11119.05,8082.47 12050.33,7169.67 11952.99,7079.89 11053.12,7997.53 10971.39,7928.56 12037.5,6480.49 11938.77,6414.6 10879.66,7878.1 10797.93,7832.68 11406.47,6662.19 11294.96,6606.37 10702.86,7788.94 10614.46,7765.39 10903.26,6899.74 10782.92,6862.06 10514.39,7706.51 10419.32,7693.06 10615.68,6383.33 10492.71,6367.5 10299.23,7661.1 10205.83,7662.78 10227.41,5839.33 10094.05,5838.02 10084.07,7666.14 9995.67,7656.05 9795.52,6350.67 9685.44,6367.5 9878.92,7711.56 9795.52,7716.61 9532.34,6824.09 9416.91,6863.74 9680.44,7755.3 9593.71,7817.54 9009.93,6584.95 8896.53,6638.33 9505.31,7832.68 9440.26,7889.87 8354.05,6393.57 8257.72,6468.43 9310.17,7931.93 9270.14,8031.18 8332.78,7077.38 8246.03,7158.14 9175.07,8110.24 9130.03,8177.53 8402.83,7629.13 8336.12,7718.29 9064.99,8256.59 9008.28,8379.39 7832.41,7737.63 7772.37,7846.14 8943.23,8444.99 8936.56,8534.15 7183.66,7970.42 7150.24,8069.87 8861.5,8638.44 8851.5,8732.65 7547.2,8525.74 7525.52,8662 8826.48,8845.35 8834.82,8922.73 7934.98,8931.15 7935.82,9069.08 8826.48,9069.08 8829.81,9156.56 7535.53,9356.95 7550.54,9459.35 8853.17,9277.67 "/>
   <path class="fil3" d="M13737.36 15634.31c81.06,-167.68 82.85,-3095.2 52.07,-3484.93 46.98,-132.18 13.94,-987.6 13.94,-1207.27 0,-202.32 0,-404.63 0,-606.95 -0.03,-183.36 -40.54,-489.43 41.66,-609.46 -92.34,34.03 -60.17,152.85 -58.47,266.08 10.38,692.72 -22.53,1496.93 2.87,2157.6l-2852.53 -595.97c-402.21,-94.53 -1135.12,-334.22 -639.52,-757.58 269.73,-230.39 791.78,-413.63 1173.69,-557.47 847.1,-319.04 1746.96,-567.95 2630.99,-830.52l2719.27 -724.79c-805.53,-87.61 -2944.35,123.46 -3840.12,201.66 -1017.1,88.83 -2569.3,290.74 -3433.92,596.54 -774.14,273.78 -2260.45,949.48 -2400.94,1646.37 -74.26,368.35 135.48,590.98 304.99,720.74 898.4,687.88 2789.09,1082.54 3451.72,1586.53 613.94,466.96 -116.16,766.99 -637.26,889.51 -1102.55,259.26 -2264.53,434.77 -3365.81,663.23 -591.07,122.62 -1010.34,299.16 -1423.73,602.83 -301.69,221.61 -818.64,678.16 -923.34,1100.59 -143.27,578.11 183.9,1201.6 391.64,1592.01 157.42,295.92 715.48,949.77 945.84,1070.14 65.45,-77.52 185.54,-360.74 252.32,-477.56 653.96,-1143.94 1772.33,-1630.39 3034.13,-2031.18 1043.92,-331.57 2304.17,-671.71 3390.96,-958.4 380.27,-100.3 763.76,-225.19 1156.85,-307.82l12.7 56.07z"/>
   <path class="fil0" d="M13845.03 9725.7c-82.2,120.03 -41.69,426.1 -41.66,609.46 0,202.32 0,404.63 0,606.95 0,219.67 33.04,1075.09 -13.94,1207.27 30.78,389.73 28.99,3317.25 -52.07,3484.93 -48.86,1009.39 -539.21,2112.56 -1357.1,2617.21 -1153.14,711.48 -3106.35,744.3 -4378.84,273.5 -162.02,-59.93 -298.28,-131.31 -445.87,-211.57 -149.11,-81.07 -255.51,-190.78 -383.05,-261.34 -368.65,268.89 -964.66,985.26 -1072.39,1466.5 614.64,542.8 1993.81,855.51 3035.11,926.07 1173.84,79.58 2492.78,-4.3 3527.44,-348.12 1017.99,-338.3 1783.2,-959.83 2222.96,-1718.74 466.49,-805.05 846.7,-2219.44 797.44,-3153.62 -6.15,-201.44 15.76,-428.13 16.53,-640.38 0.74,-211.11 0.46,-422.21 0.46,-633.34 0,-399.08 23.18,-877.74 -3.8,-1265.88l3.65 -3453.73c-209.87,15.15 -709.83,176.32 -934.71,237.85 -317.6,86.89 -606.98,178.47 -920.16,256.98z"/>
   <path class="fil0" d="M4176.29 12604.63c2.57,989.15 -30.84,3234.34 179.95,3921.91 149.39,-374.96 468.32,-704.62 700.13,-911.08 461.7,-411.21 715.32,-433.49 996.76,-635.81 -22.96,-2410.84 -3.18,-4888.19 -2.87,-7308.35 -196.02,71.87 -747.47,601.17 -915.83,766.99 -244.79,241.02 -538.5,614.73 -758.72,951.51 -150.93,230.8 -210.91,279.39 -207.67,628.6l8.25 2586.23z"/>
   <polygon class="fil0" points="13792.99,5319.4 13795.12,8561.5 15694.34,8448.51 15700.55,5245.72 "/>
   <path class="fil0" d="M8438.68 23253.23c7.02,356.07 102.14,580.86 363.4,693.9 238.88,103.36 608.52,124.49 908.78,86.84 891.63,-111.8 746.66,-964.04 548.63,-1190.17 -369.39,-421.83 -1251.84,-301.21 -1343.16,-674.79 -80.88,-330.82 233.91,-455.81 533.02,-448.61 614.28,14.81 406.42,368.04 548.98,467.06l367.6 -4.39c-6.86,-703.22 -523.45,-865.8 -1224.72,-775.1 -858.28,110.99 -732.57,980.65 -501.19,1195.65 334.44,310.75 1274.65,262.5 1322.37,691.97 41.25,371.18 -256.5,431.21 -592.83,422.52 -158.01,-4.08 -302.55,-36.72 -393.53,-108.06 -112.55,-88.21 -106,-220.52 -155.13,-354.32l-382.22 -2.5z"/>
   <path class="fil0" d="M10862.42 23978.36c55.72,-240.8 602.44,-1949.76 709.34,-2004.12l638.06 2011.2 465.41 -2.84c-21.6,-153.22 -358.94,-1159.46 -435.24,-1391.57 -199.67,-607.25 -249.77,-1145.34 -697.99,-1128.64 -298.44,11.13 -365.69,231.55 -452.19,478.06 -100.16,285.41 -659.94,1889.68 -682.91,2045.18l455.52 -7.27z"/>
   <path class="fil0" d="M12659.75 22854.18c182.09,521.54 268.68,1119.38 687.51,1129.64 312.9,7.67 386.46,-214.85 467.27,-461.51 159.8,-487.69 564.86,-1689.86 653.15,-2060.11l-470.76 4.12c-62.86,256.36 -570.94,1888.3 -648.98,2004.84 -89.86,-56.41 -649.28,-1783.23 -694.68,-2011.04l-462.72 4.14 469.21 1389.92z"/>
   <path class="fil0" d="M6622.53 23245.47l0.96 -1777.81 -311.2 3.37 -44.75 1833.38c-13.5,555.83 -1082.37,668.44 -1211.95,118.07 -93.82,-260.54 -57.54,-1582.86 -50.34,-1961.12l-328.53 -2.27c3.4,452.66 5.56,905.47 5.96,1358.16 0.37,431.68 16.13,840.73 278.07,1043.48 326.22,252.47 1607.21,432.81 1661.78,-615.26z"/>
   <path class="fil3" d="M15683.06 15224.2l22.46 -307.51c441.59,-201.53 1201.6,-489 1113.77,-1119.84 -65.73,-471.95 -694.43,-978.13 -1123.04,-1112.25 26.98,388.14 3.8,866.8 3.8,1265.88 0,211.13 0.28,422.23 -0.46,633.34 -0.77,212.25 -22.68,438.94 -16.53,640.38z"/>
   <polygon class="fil3" points="7973.8,23474.4 7980.04,23977.46 8275.97,23976.99 8273.96,21465.79 7970.15,21465.91 "/>
   <path class="fil4" d="M7980.04 23977.46l0.43 -513.15 -1169.09 -1856.79 -5.81 556.01c85.02,148.45 201.87,378.76 290.37,518.55 273.5,400.76 547.46,884.31 809.77,1295.38l74.33 0z"/>
  </g>
 </g>
</svg>
